Coordinates
version=1
nRows=24
nColumns=22
inDegrees=yes

Units are S.I. units (second, meters, Newtons, ...)
If the header above contains a line with 'inDegrees', this indicates whether rotational values are in degrees (yes) or radians (no).

endheader
time	pelvis_tilt	pelvis_list	pelvis_rotation	pelvis_tx	pelvis_ty	pelvis_tz	hip_flexion_r	hip_adduction_r	hip_rotation_r	knee_angle_r	ankle_angle_r	subtalar_angle_r	hip_flexion_l	hip_adduction_l	hip_rotation_l	knee_angle_l	ankle_angle_l	subtalar_angle_l	lumbar_extension	lumbar_bending	lumbar_rotation
      3.68000000	     -7.79292083	     -2.38455729	     -1.59001205	     -0.55290249	      0.94422899	     -0.18927305	      5.75769556	      1.46694036	      2.16191601	    -35.25079696	      7.24552929	      4.54747341	     25.11201050	     -1.78937039	     -1.85834364	    -23.20405454	      4.84987729	     -4.23180277	     -6.21404329	     -0.79817845	      2.24013888
      3.69000000	     -7.82971134	     -2.14779008	     -1.64991000	     -0.55936960	      0.94327985	     -0.18735479	      5.02838510	      1.26767694	      1.88738050	    -33.62905211	      8.18930848	      4.74138568	     25.57289062	     -1.70021866	     -1.92944771	    -23.17754361	      4.43035037	     -4.16255825	     -6.16091180	     -1.08601423	      2.39389575
      3.70000000	     -7.86812090	     -1.91944368	     -1.73406354	     -0.56597237	      0.94228987	     -0.18533891	      4.39426134	      1.08894439	      1.60185591	    -32.06917372	      9.28739892	      4.76559000	     26.03437739	     -1.63995000	     -2.03102644	    -23.13662676	      3.99125641	     -4.08339390	     -6.12250850	     -1.36297287	      2.56573117
      3.71000000	     -7.87992947	     -1.68531130	     -1.83721549	     -0.57268361	      0.94132979	     -0.18322350	      3.82952743	      0.91786377	      1.31521864	    -30.59905929	     10.47506370	      4.65931176	     26.45578541	     -1.59176350	     -2.16625895	    -23.06552204	      3.52368176	     -4.00189860	     -6.13001573	     -1.64998457	      2.73026891
      3.72000000	     -7.85977506	     -1.45575833	     -1.96069016	     -0.57950352	      0.94042465	     -0.18101655	      3.33263694	      0.77078770	      1.05268435	    -29.23806749	     11.66644995	      4.38369190	     26.83307073	     -1.56637415	     -2.34020417	    -22.96670724	      3.02397786	     -3.92675909	     -6.18946458	     -1.93357708	      2.89409998
      3.73000000	     -7.83681722	     -1.25822087	     -2.11178003	     -0.58644420	      0.93953822	     -0.17870381	      2.94645338	      0.67873914	      0.81414510	    -28.01530159	     12.82298210	      3.92906271	     27.19457105	     -1.59000907	     -2.51470490	    -22.83820991	      2.51730476	     -3.84469396	     -6.26571455	     -2.18300300	      3.08390829
      3.74000000	     -7.82017324	     -1.10345314	     -2.27768552	     -0.59351493	      0.93866209	     -0.17631622	      2.67900561	      0.65492515	      0.60930170	    -26.93554543	     13.90650357	      3.39834614	     27.55825343	     -1.66521054	     -2.66921813	    -22.69260483	      2.03038631	     -3.73098632	     -6.34973529	     -2.38291051	      3.28956085
      3.75000000	     -7.81701746	     -0.95957676	     -2.44815385	     -0.60066139	      0.93779216	     -0.17390857	      2.52939597	      0.65602657	      0.42241591	    -25.99575453	     14.93109134	      3.01427389	     27.92057505	     -1.75229829	     -2.81406919	    -22.51560866	      1.58415260	     -3.57557219	     -6.42343205	     -2.56528205	      3.47169478
      3.76000000	     -7.78672795	     -0.87174209	     -2.61080694	     -0.60788273	      0.93699941	     -0.17145789	      2.41738682	      0.74034664	      0.27599882	    -25.13731960	     15.79077302	      2.37077302	     28.27208140	     -1.89977686	     -2.95464579	    -22.36914774	      1.19222361	     -3.33208121	     -6.54327529	     -2.68418111	      3.64832806
      3.77000000	     -7.77344937	     -0.82237651	     -2.76108456	     -0.61516268	      0.93621921	     -0.16904454	      2.40421466	      0.86970642	      0.11388430	    -24.39476270	     16.58129641	      1.86318791	     28.62524447	     -2.07213367	     -3.03541921	    -22.19527900	      0.90707563	     -3.00222788	     -6.65152132	     -2.74812771	      3.81304327
      3.78000000	     -7.76175310	     -0.79469283	     -2.88511016	     -0.62245977	      0.93547687	     -0.16668777	      2.44935064	      1.02460437	     -0.06665908	    -23.73583789	     17.29204094	      1.42806175	     28.97165166	     -2.25123497	     -3.08410509	    -22.01145963	      0.75281975	     -2.56621160	     -6.76215232	     -2.77932345	      3.94817384
      3.79000000	     -7.75178944	     -0.80721170	     -2.97820864	     -0.62977996	      0.93478930	     -0.16439445	      2.54584749	      1.22362391	     -0.26957916	    -23.15190137	     17.90637768	      1.01672988	     29.31144064	     -2.45284750	     -3.08583865	    -21.82022699	      0.76118987	     -1.99336900	     -6.88108398	     -2.75592722	      4.06151889
      3.80000000	     -7.74494630	     -0.83480023	     -3.04464890	     -0.63710851	      0.93416421	     -0.16218129	      2.68995481	      1.43444141	     -0.49766286	    -22.63529295	     18.43738379	      0.63795709	     29.64356853	     -2.65470597	     -3.06847338	    -21.61862726	      0.92197277	     -1.29192372	     -7.00387677	     -2.70733609	      4.15531891
      3.81000000	     -7.74362719	     -0.87357559	     -3.08310303	     -0.64443861	      0.93360716	     -0.16004777	      2.87983214	      1.65343512	     -0.74532958	    -22.18091167	     18.89943716	      0.28791769	     29.96270870	     -2.85113232	     -3.02412366	    -21.39461939	      1.24731845	     -0.48885801	     -7.12815195	     -2.64068023	      4.23693221
      3.82000000	     -7.74533222	     -0.92078457	     -3.10608052	     -0.65175957	      0.93313102	     -0.15797615	      3.10746052	      1.87771368	     -0.99270177	    -21.78046898	     19.29763084	     -0.05651273	     30.26258362	     -3.04909314	     -2.97644024	    -21.14471619	      1.69748012	      0.40702289	     -7.25569803	     -2.55985863	      4.31953310
      3.83000000	     -7.75008340	     -0.97359560	     -3.12000771	     -0.65905263	      0.93274058	     -0.15594826	      3.36817179	      2.10599052	     -1.22999436	    -21.42917299	     19.63726609	     -0.39759515	     30.53739646	     -3.25083857	     -2.93359733	    -20.86331387	      2.24997235	      1.35072960	     -7.38464519	     -2.47255856	      4.40492507
      3.84000000	     -7.75709877	     -1.03221352	     -3.12733520	     -0.66629646	      0.93243213	     -0.15396698	      3.65364283	      2.33938492	     -1.44304223	    -21.11793007	     19.92632105	     -0.73335478	     30.78621821	     -3.46141205	     -2.91661645	    -20.55162164	      2.87419169	      2.29565657	     -7.51259728	     -2.37841147	      4.50288724
      3.85000000	     -7.76628653	     -1.09833564	     -3.13757275	     -0.67346609	      0.93219814	     -0.15201184	      3.96005692	      2.58241226	     -1.61425982	    -20.84417084	     20.16014320	     -1.07258542	     31.01089451	     -3.69216386	     -2.94948652	    -20.21960786	      3.52547438	      3.22842266	     -7.63655133	     -2.27875663	      4.61065294
      3.86000000	     -7.77585361	     -1.17318591	     -3.15665801	     -0.68054448	      0.93203816	     -0.15008048	      4.28738985	      2.83656638	     -1.73475027	    -20.61472694	     20.33842235	     -1.42966561	     31.20981280	     -3.94887928	     -3.04059235	    -19.87200903	      4.14692814	      4.13061867	     -7.75658749	     -2.17379425	      4.74037751
      3.87000000	     -7.78651951	     -1.26348221	     -3.18154442	     -0.68750082	      0.93193833	     -0.14817822	      4.63301858	      3.10957968	     -1.80442071	    -20.42843519	     20.45822263	     -1.81411251	     31.39426498	     -4.24045623	     -3.20352464	    -19.53370658	      4.70888336	      4.99100279	     -7.86761224	     -2.05600226	      4.87980612
      3.88000000	     -7.78247613	     -1.36161857	     -3.19811074	     -0.69431895	      0.93191924	     -0.14634485	      4.99466001	      3.38551944	     -1.86955157	    -20.31429448	     20.53369059	     -2.28009715	     31.55622423	     -4.54916070	     -3.42009600	    -19.22562594	      5.18640242	      5.81652652	     -7.98865053	     -1.93401934	      5.00228599
      3.89000000	     -7.79519473	     -1.49127258	     -3.23552839	     -0.70095702	      0.93195713	     -0.14452077	      5.37349535	      3.70367804	     -1.83981777	    -20.21749288	     20.53070273	     -2.68267899	     31.73830970	     -4.91668562	     -3.71477382	    -18.98604493	      5.55713075	      6.49185966	     -8.07351513	     -1.78438719	      5.16358324
      3.90000000	     -7.77751687	     -1.62908833	     -3.24769953	     -0.70740858	      0.93211248	     -0.14279945	      5.75450959	      4.01937558	     -1.83726723	    -20.20380892	     20.48247700	     -3.14880585	     31.91093626	     -5.29074601	     -4.04389668	    -18.85601172	      5.84989902	      7.09462875	     -8.18316680	     -1.63163532	      5.27745788
      3.91000000	     -7.74228836	     -1.76211674	     -3.22766001	     -0.71360240	      0.93239680	     -0.14119869	      6.11736995	      4.31923877	     -1.84466389	    -20.21587227	     20.37535881	     -3.62046567	     32.08434279	     -5.65294032	     -4.39849327	    -18.85181192	      6.05228370	      7.53800990	     -8.29010032	     -1.49011873	      5.34733261
